<svg width="28" height="35" viewBox="0 0 28 35" fill="none" xmlns="http://www.w3.org/2000/svg">
<path fill-rule="evenodd" clip-rule="evenodd" d="M20.6828 3.94514C18.1371 3.30829 15.5913 2.03458 13.682 0.124023C11.7727 2.03458 9.22691 3.30829 6.68115 3.94514C7.31759 9.67683 9.22691 13.4979 13.682 16.6822C18.1371 13.4979 20.6828 9.67683 20.6828 3.94514Z" fill="#FFC727"/>
<path fill-rule="evenodd" clip-rule="evenodd" d="M18.1365 27.6578L0.316162 6.6416V16.8313L14.3179 32.7526L18.1365 27.6578Z" fill="#FBFBFB"/>
<path fill-rule="evenodd" clip-rule="evenodd" d="M20.0461 25.7476L27.6834 16.8316V7.27881L15.5911 21.2896L20.0461 25.7476Z" fill="#FBFBFB"/>
<path fill-rule="evenodd" clip-rule="evenodd" d="M20.6826 28.9319V34.6636L27.6835 26.3845V20.6528L20.6826 28.9319Z" fill="#FBFBFB"/>
<path fill-rule="evenodd" clip-rule="evenodd" d="M7.31701 28.9319L0.316162 20.6528V26.3845L7.31701 34.6636V28.9319Z" fill="#FBFBFB"/>
</svg>
