<svg width="38" height="38" viewBox="0 0 38 38" fill="none" xmlns="http://www.w3.org/2000/svg">
<g filter="url(#filter0_d_30_2082)">
<path d="M10 9C10 7.89543 10.8954 7 12 7H26C27.1046 7 28 7.89543 28 9V23C28 24.1046 27.1046 25 26 25H12C10.8954 25 10 24.1046 10 23V9Z" fill="#734AEF"/>
<path d="M26 13.3333C26 14.0667 25.4273 14.6667 24.7273 14.6667C24.6127 14.6667 24.5045 14.6533 24.4027 14.62L22.1373 16.9867C22.1691 17.0933 22.1818 17.2133 22.1818 17.3333C22.1818 18.0667 21.6091 18.6667 20.9091 18.6667C20.2091 18.6667 19.6364 18.0667 19.6364 17.3333C19.6364 17.2133 19.6491 17.0933 19.6809 16.9867L18.0582 15.2867C17.9564 15.32 17.8418 15.3333 17.7273 15.3333C17.6127 15.3333 17.4982 15.32 17.3964 15.2867L14.5009 18.3267C14.5327 18.4333 14.5455 18.5467 14.5455 18.6667C14.5455 19.4 13.9727 20 13.2727 20C12.5727 20 12 19.4 12 18.6667C12 17.9333 12.5727 17.3333 13.2727 17.3333C13.3873 17.3333 13.4955 17.3467 13.5973 17.38L16.4991 14.3467C16.4673 14.24 16.4545 14.12 16.4545 14C16.4545 13.2667 17.0273 12.6667 17.7273 12.6667C18.4273 12.6667 19 13.2667 19 14C19 14.12 18.9873 14.24 18.9555 14.3467L20.5782 16.0467C20.68 16.0133 20.7945 16 20.9091 16C21.0236 16 21.1382 16.0133 21.24 16.0467L23.4991 13.6733C23.4673 13.5667 23.4545 13.4533 23.4545 13.3333C23.4545 12.6 24.0273 12 24.7273 12C25.4273 12 26 12.6 26 13.3333Z" fill="#FBFBFB"/>
</g>
<defs>
<filter id="filter0_d_30_2082" x="-3" y="-3" width="44" height="44" filterUnits="userSpaceOnUse" color-interpolation-filters="sRGB">
<feFlood flood-opacity="0" result="BackgroundImageFix"/>
<feColorMatrix in="SourceAlpha" type="matrix" values="0 0 0 0 0 0 0 0 0 0 0 0 0 0 0 0 0 0 127 0" result="hardAlpha"/>
<feOffset dy="3"/>
<feGaussianBlur stdDeviation="5"/>
<feColorMatrix type="matrix" values="0 0 0 0 0.290196 0 0 0 0 0.337255 0 0 0 0 0.886275 0 0 0 0.5 0"/>
<feBlend mode="normal" in2="BackgroundImageFix" result="effect1_dropShadow_30_2082"/>
<feBlend mode="normal" in="SourceGraphic" in2="effect1_dropShadow_30_2082" result="shape"/>
</filter>
</defs>
</svg>
